<?xml version="1.0" encoding="UTF-8"?>
<svg xmlns="http://www.w3.org/2000/svg" width="128" height="128" viewBox="0 0 128 128" fill="none">
  <defs>
    <linearGradient id="vltBg" x1="0" y1="0" x2="128" y2="128">
      <stop offset="0" stop-color="#0f1419"/><stop offset="1" stop-color="#1a222c"/>
    </linearGradient>
    <linearGradient id="vltEm" x1="0" y1="0" x2="128" y2="128">
      <stop offset="0" stop-color="#34d399"/><stop offset="0.5" stop-color="#10b981"/><stop offset="1" stop-color="#059669"/>
    </linearGradient>
    <linearGradient id="vltEmHi" x1="64" y1="30" x2="64" y2="90">
      <stop offset="0" stop-color="#6ee7b7"/><stop offset="1" stop-color="#10b981"/>
    </linearGradient>
    <filter id="vltGlow" x="-0.4" y="-0.4" width="1.8" height="1.8">
      <feGaussianBlur stdDeviation="2.2" result="b"/>
      <feMerge><feMergeNode in="b"/><feMergeNode in="SourceGraphic"/></feMerge>
    </filter>
    <filter id="vltSoft" x="-0.5" y="-0.5" width="2" height="2">
      <feGaussianBlur stdDeviation="1.5" result="b"/>
      <feMerge><feMergeNode in="b"/><feMergeNode in="SourceGraphic"/></feMerge>
    </filter>
  </defs>
  <rect width="128" height="128" rx="26" fill="url(#vltBg)"/>
  <rect x="1" y="1" width="126" height="126" rx="25" stroke="rgba(16,185,129,0.22)" stroke-width="2" fill="none"/>
  <circle cx="64" cy="74" r="20" fill="none" stroke="rgba(16,185,129,0.12)" stroke-width="1.5"/>
  <circle cx="64" cy="74" r="12" fill="none" stroke="rgba(16,185,129,0.2)" stroke-width="1.2"/>
  <path d="M38 40L64 76L90 40" fill="none" stroke="url(#vltEm)" stroke-width="7" stroke-linecap="round" stroke-linejoin="round" filter="url(#vltGlow)"/>
  <path d="M38 40L64 76L90 40" fill="none" stroke="url(#vltEmHi)" stroke-width="3.5" stroke-linecap="round" stroke-linejoin="round" opacity="0.95"/>
  <circle cx="64" cy="76" r="5" fill="#f8fafc" filter="url(#vltSoft)"/>
  <circle cx="64" cy="76" r="2.5" fill="#ffffff"/>
  <circle cx="98" cy="98" r="16" fill="url(#vltEm)" stroke="#0f1419" stroke-width="2"/>
  <path d="M98 88v20M93 93l5-5 5 5M93 103l5 5 5-5" stroke="#f8fafc" stroke-width="2.2" stroke-linecap="round" stroke-linejoin="round"/>
</svg>
